<svg xmlns="http://www.w3.org/2000/svg" version="1.1" xmlns:xlink="http://www.w3.org/1999/xlink" xmlns:svgjs="http://svgjs.dev/svgjs" width="1500" height="1500" viewBox="0 0 1500 1500"><rect width="1500" height="1500" fill="#f9f6ed"></rect><g transform="matrix(0.6666666666666666,0,0,0.6666666666666666,249.39393939393938,627.4042899207734)"><svg viewBox="0 0 396 97" data-background-color="#f9f6ed" preserveAspectRatio="xMidYMid meet" height="367" width="1500" xmlns="http://www.w3.org/2000/svg" xmlns:xlink="http://www.w3.org/1999/xlink"><g id="tight-bounds" transform="matrix(1,0,0,1,0.2400000000000091,0.13573001486767566)"><svg viewBox="0 0 395.52 96.75811836136097" height="96.75811836136097" width="395.52"><g><svg viewBox="0 0 599.2905500509112 146.6075697175141" height="96.75811836136097" width="395.52"><g transform="matrix(1,0,0,1,203.7705500509112,45.30386703646635)"><svg viewBox="0 0 395.52 55.99983564458141" height="55.99983564458141" width="395.52"><g id="textblocktransform"><svg viewBox="0 0 395.52 55.99983564458141" height="55.99983564458141" width="395.52" id="textblock"><g><svg viewBox="0 0 395.52 55.99983564458141" height="55.99983564458141" width="395.52"><g transform="matrix(1,0,0,1,0,0)"><svg width="395.52" viewBox="2.15 -32.3 292.02000000000004 41.349999999999994" height="55.99983564458141" data-palette-color="#21272d"><path d="M11.15 0.45Q8.8 0.45 6.75-1.1 4.7-2.65 3.43-5.88 2.15-9.1 2.15-13.85L2.15-13.85Q2.15-17.25 2.55-20.13 2.95-23 3.65-24.7L3.65-24.7Q4.4-25.9 6.1-27.28 7.8-28.65 9.5-29.6 11.2-30.55 11.95-30.55L11.95-30.55Q13.4-30.5 16.03-30.38 18.65-30.25 21.2-30.05L21.2-30.05 20.6-21.4 17.9-21.4 17.3-26.5Q16.1-26.75 14.15-26.9 12.2-27.05 11.2-27.05L11.2-27.05Q10.2-27.05 9.6-26.75L9.6-26.75Q8.4-26.1 7.75-23.15 7.1-20.2 7.1-15.6L7.1-15.6Q7.1-8.6 8.83-5.93 10.55-3.25 13.5-3.25L13.5-3.25 17.1-3.25 17.95-9.6 20.5-9.55 20.55-0.7Q19.35-0.35 15.65 0.05 11.95 0.45 11.15 0.45L11.15 0.45ZM32.5 0.45Q30.45 0.45 28.67-0.73 26.9-1.9 25.8-4.35 24.7-6.8 24.7-10.45L24.7-10.45Q24.7-12.8 25.02-14.83 25.35-16.85 25.9-17.9L25.9-17.9Q26.7-19.05 29.47-20.95 32.25-22.85 33.15-22.85L33.15-22.85Q34.15-22.85 41.9-21.7L41.9-21.7 41.9-2.9 43.6-2.2 43.6-0.35Q39.65 0.45 39.2 0.45L39.2 0.45Q39 0.45 38.25-0.25 37.5-0.95 37.5-1.2L37.5-1.2 37.5-3.15Q37.2-2.9 35-1.23 32.8 0.45 32.5 0.45L32.5 0.45ZM32.8-3.25Q33.35-3.25 37.35-5.25L37.35-5.25 37.35-19Q36.1-19.4 34.1-19.73 32.1-20.05 31.4-19.95L31.4-19.95Q30.45-19.8 29.97-17.8 29.5-15.8 29.5-10.8L29.5-10.8Q29.5-8.25 30.07-6.55 30.65-4.85 31.42-4.05 32.2-3.25 32.8-3.25L32.8-3.25ZM50.35 0.45Q50.1 0.45 49.37-0.25 48.65-0.95 48.65-1.2L48.65-1.2 48.65-19.6 46.9-20.2 46.9-22.05Q50.7-22.8 51.15-22.8L51.15-22.8Q51.4-22.8 52.27-22 53.15-21.2 53.15-21L53.15-21 53.05-19.25Q56.65-23.05 56.95-23.05L56.95-23.05Q57.75-23.05 60.3-22.25L60.3-22.25Q60.45-21.9 60.52-21.45 60.6-21 60.6-20.7L60.6-20.7Q60.6-20.4 60.02-19.3 59.45-18.2 59.25-18.1L59.25-18.1Q57.6-18.75 56.6-18.75L56.6-18.75Q55.95-18.75 53.2-17.15L53.2-17.15 53.2-3.15 55.75-2.4 55.75-0.35Q50.8 0.45 50.35 0.45L50.35 0.45ZM70.74 0L70.74-1.9 73.84-2.9 74.74-27.25 71.64-28.25 71.64-30.15 81.34-30.15 88.14-6.2 88.74-6.2 95.49-30.15 105.24-30.15 105.24-28.25 102.14-27.25 103.09-2.9 106.19-1.9 106.19 0 95.14 0 95.14-2.15 98.44-3.15 98.04-24.55 97.69-24.55Q95.99-18.15 95.04-15.05L95.04-15.05 91.19-2.4Q89.59-2.15 88.14-1.95 86.69-1.75 86.14-1.7L86.14-1.7Q85.94-1.7 85.34-2.1L85.34-2.1 81.54-14.75Q80.79-17.25 78.84-24.55L78.84-24.55 78.49-24.55 78.09-3.15 81.39-2.15 81.39 0 70.74 0ZM117.79 0.45Q115.74 0.45 113.96-0.73 112.19-1.9 111.09-4.35 109.99-6.8 109.99-10.45L109.99-10.45Q109.99-12.8 110.31-14.83 110.64-16.85 111.19-17.9L111.19-17.9Q111.99-19.05 114.76-20.95 117.54-22.85 118.44-22.85L118.44-22.85Q119.44-22.85 127.19-21.7L127.19-21.7 127.19-2.9 128.89-2.2 128.89-0.35Q124.94 0.45 124.49 0.45L124.49 0.45Q124.29 0.45 123.54-0.25 122.79-0.95 122.79-1.2L122.79-1.2 122.79-3.15Q122.49-2.9 120.29-1.23 118.09 0.45 117.79 0.45L117.79 0.45ZM118.09-3.25Q118.64-3.25 122.64-5.25L122.64-5.25 122.64-19Q121.39-19.4 119.39-19.73 117.39-20.05 116.69-19.95L116.69-19.95Q115.74-19.8 115.26-17.8 114.79-15.8 114.79-10.8L114.79-10.8Q114.79-8.25 115.36-6.55 115.94-4.85 116.71-4.05 117.49-3.25 118.09-3.25L118.09-3.25ZM135.64 0.45Q135.39 0.45 134.66-0.25 133.94-0.95 133.94-1.2L133.94-1.2 133.94-19.6 132.19-20.2 132.19-22.05Q135.99-22.8 136.44-22.8L136.44-22.8Q136.69-22.8 137.56-22 138.44-21.2 138.44-21L138.44-21 138.34-19.25Q141.94-23.05 142.24-23.05L142.24-23.05Q143.04-23.05 145.59-22.25L145.59-22.25Q145.74-21.9 145.81-21.45 145.89-21 145.89-20.7L145.89-20.7Q145.89-20.4 145.31-19.3 144.74-18.2 144.54-18.1L144.54-18.1Q142.89-18.75 141.89-18.75L141.89-18.75Q141.24-18.75 138.49-17.15L138.49-17.15 138.49-3.15 141.04-2.4 141.04-0.35Q136.09 0.45 135.64 0.45L135.64 0.45ZM151.13 0.45Q150.88 0.45 150.18-0.25 149.48-0.95 149.48-1.2L149.48-1.2 149.48-28.95 147.68-29.65 147.68-31.5Q151.88-32.3 152.33-32.3L152.33-32.3Q152.58-32.3 153.28-31.6 153.98-30.9 153.98-30.65L153.98-30.65 153.98-2.95 155.68-2.2 155.68-0.35Q151.58 0.45 151.13 0.45L151.13 0.45ZM163.68 0.45Q163.48 0.45 162.73-0.18 161.98-0.8 161.73-1.15L161.73-1.15 154.93-11.05 154.93-13.1 160.73-19.7 158.53-20 158.53-22.4 165.03-22.75Q165.23-22.75 165.58-21.8 165.93-20.85 165.93-20.4L165.93-20.4 158.58-12.7 165.78-3 167.78-2.2 167.78-0.35Q164.08 0.45 163.68 0.45L163.68 0.45ZM178.08 0.45Q175.93 0.45 174.03-0.7 172.13-1.85 170.96-4.25 169.78-6.65 169.78-10.15L169.78-10.15Q169.78-12.65 170.11-14.78 170.43-16.9 170.98-17.9L170.98-17.9Q171.48-18.65 173.06-19.9 174.63-21.15 176.26-22.1 177.88-23.05 178.48-23.05L178.48-23.05Q181.18-23.05 182.86-22.2 184.53-21.35 185.46-18.95 186.38-16.55 186.38-12.05L186.38-12.05 174.58-11.05Q174.58-8.05 175.38-6.28 176.18-4.5 177.26-3.8 178.33-3.1 179.23-3.1L179.23-3.1 181.58-3.2 185.68-3.35 185.68-1.3Q183.83-0.7 181.31-0.13 178.78 0.45 178.08 0.45L178.08 0.45ZM174.68-13.1L181.53-14Q181.53-17 180.73-18.53 179.93-20.05 178.08-20.05L178.08-20.05Q176.98-20.05 176.18-19.7L176.18-19.7Q175.53-19.4 175.11-17.4 174.68-15.4 174.68-13.1L174.68-13.1ZM195.28 0.45Q194.73 0.45 193.83-0.28 192.93-1 192.25-1.95 191.58-2.9 191.58-3.45L191.58-3.45 191.58-19.75 188.38-19.75 188.38-21.25 191.58-22.85 194.38-26.25Q194.83-26.25 196.13-25.55L196.13-25.55 196.13-22.4 200.98-22.4 200.98-19.5 196.13-19.5 196.13-5.65Q196.13-4.1 196.38-3.55 196.63-3 197.33-3L197.33-3 201.43-2.9 201.43-0.5Q199.98-0.2 197.88 0.13 195.78 0.45 195.28 0.45L195.28 0.45ZM207.03 9.05Q206.78 9.05 206.03 8.35 205.28 7.65 205.28 7.4L205.28 7.4 205.53-0.65 205.53-19.5 203.83-20.2 203.83-22.05Q204.93-22.3 206.43-22.58 207.93-22.85 208.23-22.85L208.23-22.85Q208.43-22.85 209.18-22.15 209.93-21.45 209.93-21.2L209.93-21.2 209.93-19.25 211.43-20.4Q214.68-22.85 214.93-22.85L214.93-22.85Q216.93-22.85 218.7-21.68 220.48-20.5 221.6-18.13 222.73-15.75 222.73-12.25L222.73-12.25Q222.73-9.7 222.4-7.65 222.08-5.6 221.53-4.5L221.53-4.5Q220.73-3.35 217.95-1.45 215.18 0.45 214.28 0.45L214.28 0.45Q213.48 0.45 209.83-0.1L209.83-0.1 209.83 5.45 211.83 6.25 211.83 8.25Q210.68 8.5 209.23 8.75 207.78 9 207.03 9.05L207.03 9.05ZM216.03-2.45Q216.98-2.6 217.45-4.6 217.93-6.6 217.93-11.6L217.93-11.6Q217.93-14.15 217.35-15.85 216.78-17.55 216-18.35 215.23-19.15 214.63-19.15L214.63-19.15Q214.23-19.15 210.08-17.15L210.08-17.15 210.08-3.4Q211.33-3 213.33-2.68 215.33-2.35 216.03-2.45L216.03-2.45ZM229.77 0.45Q229.52 0.45 228.82-0.25 228.12-0.95 228.12-1.2L228.12-1.2 228.12-28.95 226.32-29.65 226.32-31.5Q230.52-32.3 230.97-32.3L230.97-32.3Q231.22-32.3 231.92-31.6 232.62-30.9 232.62-30.65L232.62-30.65 232.62-2.95 234.32-2.2 234.32-0.35Q230.22 0.45 229.77 0.45L229.77 0.45ZM245.77 0.45Q243.72 0.45 241.95-0.73 240.17-1.9 239.07-4.35 237.97-6.8 237.97-10.45L237.97-10.45Q237.97-12.8 238.3-14.83 238.62-16.85 239.17-17.9L239.17-17.9Q239.97-19.05 242.75-20.95 245.52-22.85 246.42-22.85L246.42-22.85Q247.42-22.85 255.17-21.7L255.17-21.7 255.17-2.9 256.87-2.2 256.87-0.35Q252.92 0.45 252.47 0.45L252.47 0.45Q252.27 0.45 251.52-0.25 250.77-0.95 250.77-1.2L250.77-1.2 250.77-3.15Q250.47-2.9 248.27-1.23 246.07 0.45 245.77 0.45L245.77 0.45ZM246.07-3.25Q246.62-3.25 250.62-5.25L250.62-5.25 250.62-19Q249.37-19.4 247.37-19.73 245.37-20.05 244.67-19.95L244.67-19.95Q243.72-19.8 243.25-17.8 242.77-15.8 242.77-10.8L242.77-10.8Q242.77-8.25 243.35-6.55 243.92-4.85 244.7-4.05 245.47-3.25 246.07-3.25L246.07-3.25ZM267.52 0.45Q265.72 0.45 264.07-0.73 262.42-1.9 261.39-4.28 260.37-6.65 260.37-10.15L260.37-10.15Q260.37-12.6 260.69-14.75 261.02-16.9 261.57-17.9L261.57-17.9Q262.07-18.65 263.59-19.85 265.12-21.05 266.67-21.95 268.22-22.85 268.82-22.85L268.82-22.85Q271.22-22.85 274.32-21.9L274.32-21.9 274.17-15.5 271.12-15.5 270.42-18.95Q269.82-19.25 268.92-19.5 268.02-19.75 267.32-19.75L267.32-19.75Q266.87-19.75 266.62-19.55L266.62-19.55Q265.92-19 265.54-16.6 265.17-14.2 265.17-10.8L265.17-10.8Q265.17-8.2 265.74-6.5 266.32-4.8 267.12-4 267.92-3.2 268.67-3.2L268.67-3.2 274.32-3.2 274.32-1.1Q272.57-0.55 270.34-0.05 268.12 0.45 267.52 0.45L267.52 0.45ZM285.87 0.45Q283.72 0.45 281.81-0.7 279.92-1.85 278.74-4.25 277.56-6.65 277.56-10.15L277.56-10.15Q277.56-12.65 277.89-14.78 278.22-16.9 278.77-17.9L278.77-17.9Q279.27-18.65 280.84-19.9 282.42-21.15 284.04-22.1 285.67-23.05 286.27-23.05L286.27-23.05Q288.97-23.05 290.64-22.2 292.31-21.35 293.24-18.95 294.17-16.55 294.17-12.05L294.17-12.05 282.37-11.05Q282.37-8.05 283.17-6.28 283.97-4.5 285.04-3.8 286.12-3.1 287.02-3.1L287.02-3.1 289.37-3.2 293.47-3.35 293.47-1.3Q291.62-0.7 289.09-0.13 286.56 0.45 285.87 0.45L285.87 0.45ZM282.47-13.1L289.31-14Q289.31-17 288.52-18.53 287.72-20.05 285.87-20.05L285.87-20.05Q284.77-20.05 283.97-19.7L283.97-19.7Q283.31-19.4 282.89-17.4 282.47-15.4 282.47-13.1L282.47-13.1Z" opacity="1" transform="matrix(1,0,0,1,0,0)" fill="#21272d" class="wordmark-text-0" data-fill-palette-color="primary" id="text-0"></path></svg></g></svg></g></svg></g></svg></g><g><svg viewBox="0 0 190.55033285128098 146.6075697175141" height="146.6075697175141" width="190.55033285128098"><g><svg xmlns="http://www.w3.org/2000/svg" data-name="Layer 1" viewBox="9 18.449998861164172 82 63.09000114011262" x="0" y="0" height="146.6075697175141" width="190.55033285128098" class="icon-icon-0" data-fill-palette-color="accent" id="icon-0"><path d="M86.19 73.38H13.81A1 1 0 0 1 12.81 72.38V39.23A1 1 0 0 1 14.81 39.23V71.38H85.19V39.23A1 1 0 0 1 87.19 39.23V72.38A1 1 0 0 1 86.19 73.38" fill="#ea5141" data-fill-palette-color="accent"></path><path d="M66.87 59.64H33.13A1 1 0 0 1 32.13 58.64V53A1 1 0 0 1 33.13 52H66.87A1 1 0 0 1 67.87 53V58.68A1 1 0 0 1 66.87 59.64M34.13 57.64H65.87V54H34.13Z" fill="#ea5141" data-fill-palette-color="accent"></path><path d="M28 62.48H13.81A1 1 0 1 1 13.81 60.48H27V51.12H13.81A1 1 0 1 1 13.81 49.12H28A1 1 0 0 1 29 50.12V61.48A1 1 0 0 1 28 62.48" fill="#ea5141" data-fill-palette-color="accent"></path><path d="M86.19 62.48H71.77A1 1 0 0 1 70.77 61.48V50.12A1 1 0 0 1 71.77 49.12H86.19A1 1 0 1 1 86.19 51.12H72.77V60.49H86.19A1 1 0 0 1 86.19 62.49Z" fill="#ea5141" data-fill-palette-color="accent"></path><path d="M28.1 81.54H13.81A1 1 0 0 1 12.81 80.54V72.38A1 1 0 0 1 14.81 72.38V79.55H27.1V72.38A1 1 0 0 1 29.1 72.38V80.55A1 1 0 0 1 28.1 81.54" fill="#ea5141" data-fill-palette-color="accent"></path><path d="M71.77 81.54A1 1 0 0 1 70.77 80.54V72.38A1 1 0 0 1 72.77 72.38V79.55H85.19V72.38A1 1 0 0 1 87.19 72.38V80.52A1 1 0 0 1 86.19 81.52H71.77Z" fill="#ea5141" data-fill-palette-color="accent"></path><path d="M86.19 40.23H13.81A1 1 0 0 1 13 38.68L26 18.9A1 1 0 0 1 26.83 18.45H72.83A1 1 0 0 1 73.66 18.89L87 38.67A1 1 0 0 1 86.17 40.23ZM15.67 38.23H84.31L72.31 20.46H27.41Z" fill="#ea5141" data-fill-palette-color="accent"></path><path d="M90 36.56H83.71A1 1 0 0 1 83.71 34.56H89V29.69H79.08A1 1 0 0 1 79.08 27.69H90A1 1 0 0 1 91 28.69V35.56A1 1 0 0 1 90 36.56" fill="#ea5141" data-fill-palette-color="accent"></path><path d="M16.23 36.56H10A1 1 0 0 1 9 35.56V28.69A1 1 0 0 1 10 27.69H20.77A1 1 0 0 1 20.77 29.69H11V34.56H16.23A1 1 0 0 1 16.23 36.56" fill="#ea5141" data-fill-palette-color="accent"></path></svg></g></svg></g></svg></g><defs></defs></svg><rect width="395.52" height="96.75811836136097" fill="none" stroke="none" visibility="hidden"></rect></g></svg></g></svg>